<?xml version="1.0" standalone="no"?>
<!DOCTYPE svg PUBLIC "-//W3C//DTD SVG 20010904//EN"
 "http://www.w3.org/TR/2001/REC-SVG-20010904/DTD/svg10.dtd">
<svg version="1.0" xmlns="http://www.w3.org/2000/svg"
 width="347.000000pt" height="347.000000pt" viewBox="0 0 347.000000 347.000000"
 preserveAspectRatio="xMidYMid meet">
<metadata>
Created by potrace 1.14, written by Peter Selinger 2001-2017
</metadata>
<g transform="translate(0.000000,347.000000) scale(0.100000,-0.100000)"
fill="#000000" stroke="none">
<path d="M1546 3121 c-3 -5 -22 -9 -42 -9 -38 0 -62 -20 -41 -35 9 -6 9 -10
-2 -14 -11 -5 -11 -7 0 -14 10 -6 5 -9 -16 -9 -23 0 -27 3 -15 10 22 14 6 12
-23 -3 l-26 -13 36 -14 37 -13 -29 -15 c-23 -11 -33 -12 -48 -3 -15 10 -26 8
-58 -8 -21 -11 -39 -17 -39 -13 0 4 -4 2 -8 -3 -4 -6 -20 -21 -36 -33 -16 -12
-25 -22 -21 -22 4 0 -4 -9 -19 -21 -14 -11 -24 -24 -21 -29 3 -5 0 -10 -7 -12
-7 -3 -2 -13 13 -27 19 -18 20 -21 5 -15 -16 6 -18 4 -13 -9 3 -9 2 -17 -4
-17 -6 0 -7 -4 -4 -10 9 -14 -2 -12 -28 5 -26 16 -38 11 -54 -27 -17 -39 -7
-58 26 -52 18 4 32 0 41 -11 14 -16 11 -17 -29 -10 -42 7 -44 6 -38 -16 4 -13
1 -30 -7 -39 -13 -15 -42 -117 -38 -134 2 -4 -3 -15 -10 -23 -9 -11 -12 -55
-11 -155 1 -119 4 -145 23 -182 11 -25 23 -62 26 -83 3 -21 10 -51 16 -66 10
-26 8 -31 -26 -63 -20 -18 -36 -38 -36 -42 0 -19 15 -21 33 -5 18 17 20 17 34
-2 10 -15 13 -34 8 -72 -4 -35 -3 -53 4 -53 6 0 12 21 13 48 3 100 6 131 22
257 12 91 23 138 37 157 16 23 19 42 17 108 -2 62 -6 80 -17 80 -11 0 -9 6 7
23 12 13 19 26 16 30 -4 4 1 9 10 13 9 3 16 13 16 21 0 18 32 47 81 73 30 16
52 18 130 15 112 -4 187 -14 195 -26 3 -5 13 -9 23 -9 10 0 38 -13 62 -30 47
-31 89 -39 89 -16 0 7 13 16 29 19 15 3 41 17 57 30 31 26 52 29 241 31 78 1
96 -2 119 -20 61 -45 72 -72 79 -198 3 -44 14 -107 26 -140 23 -67 48 -208 58
-331 6 -72 8 -77 18 -53 7 14 17 29 22 33 6 3 11 24 11 46 0 30 -6 46 -22 58
l-21 18 22 37 c22 35 41 47 41 25 0 -5 5 -7 10 -4 18 11 11 22 -19 28 -35 7
-47 42 -25 75 16 25 34 103 38 162 2 41 -16 136 -38 198 -8 23 -13 48 -10 55
2 7 -5 22 -16 34 -11 12 -20 27 -20 34 0 6 -9 22 -20 36 -11 14 -20 31 -20 38
0 13 -86 95 -100 95 -4 0 -12 19 -19 43 -8 25 -31 61 -59 90 -53 55 -89 77
-127 77 -14 0 -24 4 -20 9 3 5 0 13 -6 17 -8 4 -9 3 -5 -4 12 -19 -5 -14 -40
13 -18 14 -41 25 -51 25 -28 0 -71 33 -65 50 4 12 1 11 -14 -2 -23 -20 -78
-16 -128 9 -15 8 -25 10 -22 4 4 -7 -1 -11 -13 -11 -12 0 -21 3 -21 8 0 4 -20
7 -45 7 -25 0 -45 -4 -45 -9 0 -5 -6 -3 -14 3 -9 7 -17 8 -20 2z m19 -61 c3
-5 2 -10 -4 -10 -5 0 -13 5 -16 10 -3 6 -2 10 4 10 5 0 13 -4 16 -10z m35 -60
c23 -7 22 -8 -10 -8 -19 0 -46 4 -60 8 -23 7 -22 8 10 8 19 0 46 -4 60 -8z
m158 -8 c7 -5 -16 -7 -50 -4 -85 5 -96 10 -23 11 33 0 66 -3 73 -7z m199 2
c-3 -3 -12 -4 -19 -1 -8 3 -5 6 6 6 11 1 17 -2 13 -5z m152 -68 c8 -9 9 -16 3
-16 -5 0 -15 7 -22 15 -21 26 -41 19 -35 -12 l6 -28 -15 25 c-10 18 -11 27 -3
32 8 5 6 12 -8 23 -14 11 -7 10 21 -4 22 -11 46 -27 53 -35z m-727 24 c27 -16
29 -20 13 -21 -88 -5 -121 -11 -132 -26 -7 -9 -10 -19 -8 -23 3 -5 -2 -11 -11
-14 -24 -9 -36 -7 -29 4 4 6 10 8 14 5 5 -2 6 6 4 18 -3 16 3 25 23 35 16 6
34 12 42 12 7 0 20 7 28 15 19 19 17 19 56 -5z m218 6 c0 -2 -7 -6 -15 -10 -8
-3 -15 -1 -15 4 0 6 7 10 15 10 8 0 15 -2 15 -4z m255 -14 c-3 -3 -11 0 -18 7
-9 10 -8 11 6 5 10 -3 15 -9 12 -12z m-296 -58 c14 -9 17 -12 6 -8 -46 15 -85
21 -112 17 -22 -4 -25 -2 -13 7 18 13 83 5 119 -16z m-39 -36 c19 -13 36 -29
38 -37 3 -8 -12 -1 -32 14 -27 20 -48 28 -74 27 -27 -1 -33 1 -22 8 24 16 55
11 90 -12z m547 0 c-3 -8 -6 -5 -6 6 -1 11 2 17 5 13 3 -3 4 -12 1 -19z m-672
-18 c15 -6 5 -9 -35 -9 -39 -1 -51 -4 -40 -11 13 -9 13 -10 0 -10 -8 0 -33 -3
-55 -6 l-40 -6 40 26 c41 26 92 32 130 16z m234 -26 c12 -20 20 -39 17 -41 -2
-3 -14 13 -26 36 -25 51 -20 54 9 5z m-414 -42 c-3 -3 -11 0 -18 7 -9 10 -8
11 6 5 10 -3 15 -9 12 -12z m4 -51 c33 -10 41 -15 30 -21 -13 -7 -102 13 -119
27 -9 8 25 22 35 14 5 -4 30 -13 54 -20z"/>
<path d="M2130 2074 c-190 -42 -249 -52 -268 -47 -17 4 -22 1 -22 -14 0 -10 4
-23 9 -28 5 -6 16 -35 25 -66 9 -31 24 -66 33 -77 37 -44 149 -68 226 -48 26
6 60 58 52 78 -3 7 1 22 8 32 11 15 17 17 35 7 31 -17 59 1 72 47 14 51 13 56
-13 80 -40 38 -94 50 -157 36z m36 -150 c-3 -9 -6 -18 -6 -20 0 -2 -7 -4 -15
-4 -13 0 -14 4 -5 20 13 24 35 27 26 4z"/>
<path d="M1370 2073 c-8 -3 -34 -14 -57 -26 -38 -18 -40 -22 -25 -33 9 -7 31
-10 49 -7 18 3 40 2 50 -2 14 -5 6 -11 -32 -24 -43 -15 -50 -21 -47 -42 5 -46
15 -48 94 -14 13 5 20 1 27 -18 6 -14 23 -33 38 -42 l28 -16 -40 5 c-38 5 -41
4 -43 -19 -1 -18 6 -29 26 -39 38 -20 155 -10 200 17 32 19 33 21 16 34 -15
11 -15 13 -2 13 9 0 19 7 22 16 5 13 9 14 21 4 21 -17 38 -2 32 30 -4 16 0 35
8 46 19 25 19 70 0 78 -9 3 -66 10 -128 16 -101 9 -142 14 -202 25 -11 1 -27
1 -35 -2z m49 -105 c-30 -19 -69 -38 -75 -38 -16 0 29 39 50 42 20 4 34 1 25
-4z m130 -89 c-13 -10 -31 -18 -39 -18 -11 0 -11 2 -2 6 7 3 20 19 28 36 15
28 17 29 26 12 9 -14 6 -22 -13 -36z"/>
<path d="M1970 1609 c0 -3 8 -21 19 -42 15 -29 21 -34 30 -24 8 10 4 20 -19
42 -17 16 -30 27 -30 24z"/>
<path d="M1811 1501 c-9 -6 -10 -11 -2 -15 14 -9 15 -36 1 -36 -5 0 -10 7 -10
15 0 9 -12 20 -26 25 -32 13 -114 13 -114 1 0 -13 39 -25 67 -22 34 4 47 -9
26 -24 -11 -8 -18 -27 -19 -47 0 -18 -4 -40 -7 -48 -6 -12 2 -15 45 -13 96 3
193 15 203 24 5 6 3 9 -6 9 -9 0 -21 16 -29 39 -11 33 -10 44 3 70 l15 31 -38
0 c-21 0 -50 -4 -64 -9 -15 -6 -26 -6 -28 -1 -2 5 -9 6 -17 1z"/>
<path d="M2080 1400 c0 -6 -11 -15 -25 -20 -14 -5 -25 -14 -25 -20 0 -6 -6 -8
-12 -4 -10 6 -10 4 0 -7 27 -29 14 -39 -53 -39 -41 0 -78 -6 -97 -16 -20 -10
-43 -14 -67 -10 -52 9 -50 9 -129 1 l-72 -8 -11 31 c-11 32 -32 34 -55 4 -5
-7 -19 -12 -29 -10 -17 2 -21 -4 -26 -47 -7 -61 -1 -95 17 -95 7 0 11 6 8 14
-3 9 5 21 20 31 14 10 26 23 26 30 0 28 64 26 218 -7 46 -10 62 -9 125 10 123
35 145 40 154 32 4 -5 25 -18 47 -29 29 -17 41 -19 52 -10 18 15 18 70 -1 95
-8 10 -15 26 -15 34 -1 17 -50 57 -50 40z"/>
<path d="M2324 1363 c-3 -16 -10 -38 -16 -50 -12 -24 -28 -31 -28 -13 0 6 -8
20 -19 31 -23 24 -27 20 -74 -83 -22 -49 -30 -75 -21 -71 21 8 18 -36 -6 -74
-11 -18 -24 -33 -29 -33 -5 0 -13 -10 -17 -22 -4 -12 -19 -35 -35 -51 -24 -23
-35 -27 -66 -23 -21 2 -46 7 -57 12 -11 4 -21 2 -26 -6 -7 -11 -12 -11 -23 -2
-7 7 -16 10 -19 7 -3 -3 -11 1 -18 10 -7 8 -23 15 -36 15 -19 0 -24 -5 -24
-25 0 -21 -5 -25 -32 -25 -17 0 -40 -8 -51 -17 -13 -13 -35 -18 -74 -17 -47 0
-59 4 -77 25 -22 26 -66 45 -66 28 0 -5 12 -16 28 -26 15 -10 43 -29 62 -44
19 -14 56 -35 82 -45 29 -12 48 -26 50 -37 2 -10 21 -28 43 -40 22 -12 42 -23
44 -24 10 -6 8 -53 -2 -62 -7 -5 -31 -15 -54 -21 -34 -11 -45 -10 -58 0 -8 7
-15 8 -15 2 0 -18 -27 -21 -55 -6 -15 8 -55 14 -89 14 -55 0 -64 3 -75 23 -7
13 -25 31 -39 39 -59 35 -115 127 -155 255 -23 74 -46 233 -33 233 6 0 117
-111 169 -169 15 -17 32 -31 38 -31 14 0 -5 25 -43 58 -14 12 -30 37 -34 54
-10 46 -24 66 -45 61 -24 -7 -93 61 -114 110 -8 20 -17 37 -20 37 -11 0 -46
-88 -52 -128 -3 -25 -9 -38 -13 -32 -4 7 -5 22 -2 34 5 20 4 20 -15 4 -11 -10
-25 -18 -31 -18 -6 0 -15 -12 -18 -27 -4 -16 -22 -66 -40 -113 -17 -47 -34
-101 -37 -121 -2 -19 -10 -46 -17 -58 -7 -15 -8 -27 -2 -33 6 -6 4 -23 -4 -46
-7 -20 -13 -45 -14 -54 0 -18 -36 -84 -57 -106 -7 -7 -13 -16 -13 -20 0 -17
54 50 85 108 20 36 33 54 30 40 -4 -14 -21 -52 -39 -85 -26 -48 -45 -68 -97
-102 -35 -24 -91 -63 -124 -87 -53 -38 -155 -96 -170 -96 -3 0 -4 3 -3 8 0 4
-2 15 -7 25 -10 23 20 57 50 57 13 0 28 7 35 15 7 8 39 27 72 42 38 17 58 31
56 41 -4 20 -184 142 -195 132 -4 -5 -37 -5 -73 -1 -36 5 -74 4 -85 -1 -13 -5
-49 -3 -100 7 -145 29 -144 29 -151 11 -8 -21 24 -47 49 -40 9 3 17 1 17 -5 0
-6 10 -11 23 -11 12 0 41 -10 64 -22 32 -17 41 -27 37 -40 -4 -13 0 -18 15
-18 12 0 21 -4 21 -10 0 -5 11 -10 25 -10 l24 0 -19 -33 c-11 -18 -22 -50 -25
-71 -4 -39 -23 -73 -57 -110 -18 -20 -18 -21 9 -43 16 -12 22 -22 14 -23 -11
0 -11 -3 -1 -15 12 -14 15 -14 31 1 11 10 19 12 19 6 0 -6 -4 -14 -10 -17 -20
-13 -8 -24 68 -63 93 -49 194 -78 317 -92 135 -15 988 -13 1003 2 10 10 17 10
32 0 25 -15 732 -17 865 -2 96 11 188 32 245 57 33 13 34 15 15 25 -11 7 -25
19 -32 27 -16 22 7 34 41 21 17 -6 27 -6 32 1 3 6 17 8 29 5 13 -3 27 -2 30 4
3 5 15 10 26 10 24 0 92 45 133 89 27 28 28 31 10 37 -10 4 -57 22 -104 41
-47 19 -107 41 -135 50 -69 21 -72 24 -41 40 21 11 31 12 41 3 15 -13 55 -5
55 11 0 5 -18 9 -39 9 -27 0 -41 5 -45 16 -7 18 1 30 51 84 18 19 33 43 33 52
0 13 -16 3 -57 -37 -35 -33 -67 -55 -80 -55 -30 0 -29 8 4 42 22 23 24 28 10
33 -8 4 -24 2 -36 -4 -11 -6 -36 -11 -55 -11 -33 0 -38 -4 -58 -47 -13 -27
-24 -50 -25 -52 -2 -2 -15 1 -30 8 -19 9 -23 15 -15 20 10 6 9 11 -3 21 -8 7
-15 10 -15 6 0 -4 -11 1 -25 10 -24 16 -25 15 -19 -1 6 -15 4 -16 -14 -6 -25
13 -33 25 -49 71 -15 41 -16 53 -5 46 5 -3 9 27 9 65 1 55 -3 75 -16 88 -10
10 -24 49 -31 87 -15 80 -57 169 -133 280 -29 43 -52 85 -50 92 3 6 2 12 -1
12 -3 0 -8 -12 -12 -27z m-41 -450 c-3 -32 -14 -64 -29 -84 -13 -18 -24 -39
-24 -46 0 -7 -13 -22 -29 -34 -16 -12 -43 -41 -60 -64 -32 -45 -79 -73 -137
-82 -29 -5 -33 -3 -28 11 4 11 -2 19 -21 26 -25 10 -26 12 -12 28 14 17 15 38
4 145 -5 44 5 54 76 77 55 18 66 33 138 177 11 23 27 47 35 54 8 6 14 16 14
21 0 5 15 27 33 50 l32 40 7 -133 c4 -74 5 -157 1 -186z m-933 267 c0 -5 -4
-10 -10 -10 -5 0 -10 5 -10 10 0 6 5 10 10 10 6 0 10 -4 10 -10z m1180 -327
c23 -53 22 -80 -3 -42 -17 26 -34 89 -24 89 3 0 15 -21 27 -47z m22 -190 c21
-19 23 -44 6 -61 -17 -17 -44 -15 -62 4 -23 22 -20 49 7 62 29 14 28 14 49 -5z
m-1542 -28 c16 -19 10 -26 -17 -19 -13 4 -20 11 -16 20 7 18 17 18 33 -1z
m1569 -93 c5 -9 11 -33 13 -52 3 -30 0 -35 -20 -38 -18 -3 -26 4 -37 32 -24
56 -20 67 27 75 4 0 12 -7 17 -17z m-1334 -102 c10 0 13 5 9 13 -5 8 -3 8 7
-1 12 -11 10 -16 -10 -33 -13 -10 -37 -19 -53 -19 -24 0 -28 3 -23 19 3 10 -1
24 -10 31 -29 24 -15 30 25 10 21 -11 46 -20 55 -20z m1230 -134 c6 -6 23 -13
39 -14 36 -3 56 -18 56 -43 0 -16 -8 -19 -41 -19 -32 0 -40 3 -36 14 3 8 -1
20 -9 27 -13 10 -17 10 -25 -2 -5 -8 -9 -20 -9 -26 0 -7 -4 -13 -10 -13 -5 0
-9 6 -7 13 1 6 -5 10 -13 7 -26 -7 -128 -2 -146 8 -14 8 -11 11 16 20 18 7 36
9 40 7 5 -3 25 6 46 20 38 25 78 26 99 1z"/>
<path d="M2560 469 c0 -5 5 -7 10 -4 6 3 10 8 10 11 0 2 -4 4 -10 4 -5 0 -10
-5 -10 -11z"/>
<path d="M2531 264 c0 -11 3 -14 6 -6 3 7 2 16 -1 19 -3 4 -6 -2 -5 -13z"/>
<path d="M2276 1362 c-3 -6 -1 -14 5 -17 15 -10 25 3 12 16 -7 7 -13 7 -17 1z"/>
<path d="M1520 1339 c0 -5 5 -7 10 -4 6 3 10 8 10 11 0 2 -4 4 -10 4 -5 0 -10
-5 -10 -11z"/>
<path d="M1117 1284 c-8 -8 1 -24 14 -24 5 0 9 7 9 15 0 15 -12 20 -23 9z"/>
<path d="M1877 1213 c-28 -11 -35 -18 -25 -25 8 -5 -4 -6 -29 -2 -46 7 -103
-10 -103 -30 0 -6 14 -20 31 -30 24 -14 44 -17 95 -13 54 5 67 10 89 34 30 34
30 77 0 80 -11 1 -37 -5 -58 -14z"/>
<path d="M2113 1178 c-4 -7 -9 -28 -10 -46 -3 -46 20 -36 28 12 6 38 -3 56
-18 34z"/>
<path d="M2640 1150 c6 -11 13 -20 16 -20 2 0 0 9 -6 20 -6 11 -13 20 -16 20
-2 0 0 -9 6 -20z"/>
<path d="M455 1110 c-3 -5 -2 -10 4 -10 5 0 13 5 16 10 3 6 2 10 -4 10 -5 0
-13 -4 -16 -10z"/>
<path d="M465 1050 c-3 -5 1 -10 9 -10 9 0 16 5 16 10 0 6 -4 10 -9 10 -6 0
-13 -4 -16 -10z"/>
<path d="M2945 1030 c-3 -5 -15 -10 -25 -10 -11 0 -25 -12 -32 -27 -9 -19 -22
-29 -41 -31 -24 -3 -40 -22 -18 -22 5 0 17 -12 27 -27 11 -18 12 -24 3 -17 -8
6 -33 16 -57 22 -41 10 -44 9 -53 -15 -5 -13 -9 -28 -9 -32 0 -14 41 -20 67
-10 14 5 34 7 45 3 18 -5 18 -14 1 -61 -6 -15 13 -18 22 -4 3 5 18 12 33 16
35 7 75 44 92 84 7 17 16 31 21 31 5 0 1 -17 -10 -38 -21 -42 -14 -63 27 -76
12 -4 22 -15 22 -26 0 -36 27 -50 95 -48 35 1 66 0 68 -2 1 -3 15 -20 29 -37
26 -32 26 -36 21 -133 -4 -66 -2 -100 5 -100 6 0 29 28 51 62 43 66 43 79 -2
115 -12 10 -39 39 -61 65 -21 26 -43 46 -49 45 -7 -1 -12 5 -12 14 0 15 -90
130 -108 138 -5 1 -20 14 -34 27 -14 13 -30 24 -35 24 -5 0 -7 4 -3 9 12 20
-15 21 -35 1 -25 -25 -90 -39 -90 -20 0 8 9 10 27 5 23 -5 25 -4 14 9 -12 14
-10 16 12 16 32 0 41 14 27 40 -12 22 -25 26 -35 10z"/>
<path d="M2770 1010 c0 -11 -1 -23 -2 -27 -1 -5 6 -9 15 -11 12 -2 15 4 15 27
-1 34 -28 44 -28 11z"/>
<path d="M220 870 c-45 -4 -60 -8 -48 -14 10 -4 16 -11 14 -15 -2 -3 17 -5 42
-3 l47 3 -34 -22 c-29 -19 -37 -21 -65 -11 -45 16 -62 16 -47 -1 7 -9 46 -16
108 -21 54 -3 115 -9 135 -12 34 -6 36 -5 31 16 -3 12 -12 24 -19 27 -8 3 -11
9 -8 14 3 5 -2 9 -10 9 -9 0 -16 6 -16 14 0 12 -7 13 -32 5 -35 -10 -51 -3
-28 11 8 6 11 9 5 8 -5 -1 -39 -4 -75 -8z"/>
<path d="M2664 789 l-19 -22 33 17 c34 18 40 26 19 26 -8 0 -22 -10 -33 -21z"/>
<path d="M737 560 c-14 -11 -30 -20 -35 -20 -13 0 -36 -29 -29 -36 6 -7 77 37
96 60 19 22 -1 20 -32 -4z"/>
<path d="M145 560 c-3 -5 -1 -10 4 -10 6 0 11 -11 11 -24 0 -31 43 -82 74 -88
19 -4 22 -1 18 14 -3 15 0 19 14 16 12 -2 20 4 22 17 4 17 2 18 -13 5 -11 -9
-19 -10 -23 -3 -4 6 -16 12 -27 14 -12 3 -23 17 -29 37 -9 32 -37 44 -51 22z"/>
<path d="M271 538 c28 -31 29 -32 44 -13 18 25 19 35 3 36 -7 1 -27 3 -45 5
l-32 4 30 -32z"/>
<path d="M3073 533 c21 -8 41 -12 45 -9 10 11 -20 26 -53 25 l-30 0 38 -16z"/>
</g>
</svg>
